<?xml version="1.0" encoding="UTF-8"?>
<svg xmlns="http://www.w3.org/2000/svg" viewBox="0 0 1024 1024" width="1024" height="1024">
<path d="M0.23 0.23C341.41 0.23 682.59 0.23 1023.77 0.23C1023.77 341.41 1023.77 682.59 1023.77 1023.77C682.59 1023.77 341.41 1023.77 0.23 1023.77C0.23 682.59 0.23 341.41 0.23 0.23ZM264.18 451.44C264.32 444.13 251.78 431.65 247.26 425.62C241.12 417.42 234.77 409.37 228.67 401.14C225.39 396.73 222.11 391.03 216.97 388.55C211.45 385.89 204.66 386.87 198.72 386.88C186.56 386.89 174.41 386.86 162.25 386.86C153.52 386.87 144.79 386.89 136.07 386.89C130.55 386.89 125.21 386.71 120.95 390.76C110.72 400.47 119.59 411.35 126.16 419.51C141.2 438.2 155.44 457.6 170 476.67C174.11 482.05 184.89 498.14 189.37 501.29C195.54 493.01 201.71 484.74 207.88 476.46C192.82 456.83 177.77 437.19 162.71 417.55C169.03 415.21 184.66 416.74 192.18 416.75C195.34 416.76 200.14 415.87 202.93 417.53C205.65 419.16 208.01 423.91 209.94 426.43C216.1 434.43 221.89 444.45 229.58 450.99C237.74 447.42 244.76 444.67 253.82 447.19C257.49 448.22 260.62 450.94 264.18 451.44ZM407.2 388.37C406.85 388.57 406.5 388.76 406.15 388.96C404.32 389.4 402.49 389.83 400.65 390.27C400.26 390.46 399.86 390.65 399.46 390.84C397.54 391.3 395.62 391.75 393.7 392.2C393.38 392.38 393.06 392.56 392.74 392.74C390.87 393.34 389.01 393.95 387.14 394.56C385 395.19 382.86 395.83 380.72 396.46C376.45 397.78 372.18 399.09 367.9 400.4C367.2 400.63 366.49 400.85 365.78 401.08C364.31 401.51 362.83 401.94 361.36 402.37C361 402.58 360.64 402.78 360.28 402.98C358.46 403.43 356.65 403.88 354.83 404.33C354.48 404.51 354.14 404.7 353.79 404.89C351.8 405.49 349.81 406.1 347.83 406.71C345.67 407.34 343.52 407.97 341.36 408.61C339.48 409.06 337.6 409.52 335.72 409.98C335.4 410.16 335.08 410.33 334.76 410.5C333.34 410.98 331.92 411.46 330.5 411.94C332.52 413.68 334.53 415.42 336.55 417.16C338.14 418.41 339.73 419.67 341.32 420.92C343.16 422.48 345 424.04 346.84 425.6C348.69 427.17 350.54 428.73 352.39 430.3C353.06 431.35 353.73 432.4 354.41 433.45C349.03 440.44 343.64 447.43 338.26 454.42C337.38 455.59 336.49 456.76 335.6 457.93C334.35 459.57 333.1 461.21 331.84 462.85C330.93 464.12 330.01 465.38 329.09 466.65C328.13 467.78 327.17 468.91 326.22 470.05C322.74 474.48 319.26 478.92 315.78 483.35C313.36 486.49 310.95 489.63 308.53 492.77C307.58 493.93 306.62 495.1 305.67 496.27C304.54 497.66 303.42 499.06 302.29 500.45C301.25 501.96 300.2 503.47 299.16 504.98C297.63 506.86 296.1 508.74 294.56 510.62C293.33 512.12 292.09 513.62 290.85 515.12C290.38 515.17 289.91 515.23 289.43 515.28C287.41 512.12 285.38 508.97 283.35 505.81C279.98 500.52 276.61 495.23 273.24 489.93C272.55 488.69 271.87 487.44 271.18 486.2C269.95 484.36 268.72 482.52 267.49 480.67C266.79 479.54 266.09 478.4 265.39 477.27C265.14 476.95 264.9 476.64 264.65 476.33C262.18 472.47 259.72 468.61 257.25 464.75C254.49 458.81 245.63 458.28 240.16 460.44C233.64 463 223.98 477.66 219.42 483.63C192.87 518.42 165.81 552.83 139.15 587.55C134.13 594.07 129.23 600.68 124.18 607.18C119.41 613.33 114.34 619.39 117.27 627.66C118.76 631.88 122.54 635.45 126.91 636.6C133.98 638.47 152.15 637.08 160.38 637.08C172.54 637.08 184.69 637.09 196.85 637.07C202.79 637.07 209.81 638.1 215.41 635.78C223.18 632.58 228.17 623.33 233 616.91C239.94 607.67 247.13 598.59 254.3 589.54C257.59 585.4 260.5 580.81 264.18 577.02C269.29 580.16 273.36 587.4 276.91 592.28C283.84 601.79 291.33 610.96 298.59 620.21C302.48 625.19 306.23 631.87 311.91 634.98C317.75 638.17 325.11 637.09 331.51 637.09C344.29 637.08 357.08 637.07 369.86 637.08C378.82 637.09 393.28 638.43 401.61 636.78C404.24 636.26 406.88 634.59 408.73 632.69C419.23 621.97 407.26 610.09 400.66 601.38C387.75 584.38 374.57 567.59 361.58 550.66C354.5 541.43 347.95 531.16 339.93 522.75C333.61 530.7 327.29 538.65 320.96 546.6C336.1 566.55 351.24 586.5 366.39 606.45C361.89 608.1 356.02 607.22 351.15 607.22C346.29 607.22 329.66 608.42 326.19 606.62C323.93 605.45 320.15 598.93 318.4 596.67C313.13 589.88 302.02 573.02 295.98 568.62C292.55 569.15 289.22 569.56 285.74 569.21C267.37 567.37 264.47 553.37 254.83 541.23C249.53 544.95 245.54 552.01 241.57 557.17C233.32 567.92 224.6 578.32 216.53 589.21C214.41 592.07 205.11 605.24 202.97 606.5C200.17 608.14 195.33 607.25 192.18 607.24C184.17 607.2 169.87 608.7 162.78 606.45C189.59 571.47 216.4 536.5 243.21 501.52C243.65 501.24 244.1 500.95 244.54 500.67C244.98 500.96 245.42 501.24 245.85 501.53C246.8 503.01 247.75 504.48 248.7 505.96C249.93 507.85 251.16 509.74 252.39 511.62C254.57 515.03 256.74 518.43 258.92 521.83C259.79 523.43 260.66 525.03 261.53 526.63C262.54 528.23 263.54 529.83 264.55 531.43C266.49 536.21 274.54 549.24 278.32 552.59C280.39 554.42 282.56 555.26 285.21 555.58C287.4 556.48 289.69 556.49 291.85 555.59C295.74 555.11 298.94 552.95 301.02 549.6C301.4 549.09 301.78 548.58 302.16 548.08C306.52 542.48 310.88 536.87 315.24 531.27C319.27 526.31 323.3 521.34 327.33 516.38C328.04 515.42 328.75 514.46 329.46 513.51C330.31 512.23 331.16 510.96 332.01 509.68C332.94 508.7 333.86 507.72 334.78 506.74C341.1 498.69 347.42 490.65 353.74 482.6C355.5 480.29 357.26 477.97 359.02 475.66C359.28 475.42 359.53 475.18 359.79 474.94C360.83 473.42 361.87 471.9 362.91 470.37C363.86 469.23 364.82 468.09 365.77 466.95C368.32 463.77 370.87 460.58 373.42 457.4C374.3 456.19 375.18 454.98 376.06 453.77C376.79 453.2 377.53 452.64 378.27 452.07C379.31 452.67 380.36 453.28 381.4 453.88C383.38 455.61 385.35 457.33 387.33 459.06C387.62 459.33 387.92 459.61 388.21 459.88C393 463.89 397.79 467.9 402.59 471.9C402.79 470.47 402.99 469.03 403.19 467.6C403.36 466.97 403.53 466.34 403.7 465.71C404.16 461.02 404.62 456.34 405.08 451.65C405.27 450.73 405.46 449.8 405.65 448.88C406.08 444.5 406.52 440.13 406.95 435.76C407.14 434.83 407.33 433.91 407.52 432.98C407.95 428.58 408.38 424.19 408.82 419.79C409.28 416.71 409.75 413.62 410.22 410.54C410.54 407.73 410.86 404.92 411.18 402.12C411.38 399.95 411.58 397.78 411.79 395.61C411.84 392.8 411.89 390 411.94 387.2C410.36 387.59 408.78 387.98 407.2 388.37ZM767.3 518.16C765.88 513.08 766.61 507.06 766.62 501.71C766.64 491.43 766.63 481.14 766.59 470.85C766.57 463.99 764.13 455.25 755.07 458C746.31 460.65 748.98 473.25 748.98 480.2C748.98 500.47 748.98 520.73 748.99 540.99C749 546.84 746.66 558.29 752.01 562.38C753.43 563.46 755.25 564.02 757.01 564.14C771.89 565.15 763.98 547.5 767.07 540.29C768.07 537.95 771.85 535.32 773.84 533.84C780.8 537.99 791.89 554.18 798.47 560.79C802.01 564.34 808.07 565.54 811.99 561.85C815.48 558.57 815.24 553.2 812.61 549.51C805.42 539.42 795.42 531.25 787.91 521.35C794.13 513.88 804.06 508.3 809.62 500.55C812.35 496.77 812.08 491.38 808.03 488.57C802.75 484.9 797.91 488.94 794.13 492.53C785.18 501 776.67 510.17 767.3 518.16ZM489.56 479.11C497.35 478.32 507.91 480.5 515.16 478.28C520.27 476.72 522.28 471.07 519.69 466.44C516.51 460.78 508.01 462.35 502.65 462.33C487.37 462.29 472.1 462.33 456.83 462.32C451.58 462.32 443.73 460.91 440.48 466.25C437.66 470.89 440.11 476.8 445.17 478.32C453.07 480.7 462.38 477.75 470.46 479.27C471.17 487.29 470.7 495.52 470.69 503.58C470.67 516.99 470.67 530.39 470.67 543.8C470.67 551.46 468.89 564.42 480.2 564.16C491.26 563.9 489.31 551.51 489.32 543.8C489.33 529.77 489.35 515.74 489.31 501.71C489.29 494.3 488.57 486.44 489.56 479.11ZM866.43 498.74C857.85 490.24 850.63 477.37 842.96 467.7C839.28 463.06 833.79 459.55 828.3 464.05C822.58 468.73 825.69 474.79 829.16 479.57C837.24 490.73 846.71 501.23 853.98 512.94C852.02 517.64 848.13 521.66 845.05 525.72C839.82 532.63 834.83 539.75 829.44 546.54C825.92 550.97 822.14 557.75 827.7 562.43C832.15 566.17 837.86 564.22 841.22 560.2C849.95 549.74 857.28 538.02 865.49 527.15C875.16 536.28 881.8 550.17 890.33 560.51C893.69 564.58 899.85 565.86 904.19 562.4C909.08 558.48 907.17 552.07 903.9 547.9C895.02 536.57 885.53 525.06 877.78 512.94C879.9 508.51 883.53 504.64 886.47 500.69C891.52 493.91 896.58 487.14 901.75 480.44C905.42 475.7 909.69 469.8 904.11 464.5C899.66 460.27 893.89 462.05 890.37 466.31C881.8 476.66 874.87 488.31 866.43 498.74ZM637.31 493.76C632.28 490.81 628.43 487.37 622.34 486.33C596.77 481.96 579.62 502.94 579.96 526.96C580.28 550.4 599.79 571.68 624.44 564.23C629.1 562.82 633.02 560.43 636.38 556.91C637.93 558.89 638.77 561.45 641.16 562.88C646.5 566.08 653.65 563.17 654.55 556.87C655.84 547.84 654.66 534.57 654.64 525.09C654.62 514.79 655.91 503.53 654.43 493.33C652.98 483.33 639.88 483.58 637.31 493.76ZM703.88 485.73C662.28 489.64 656.47 551.55 694.49 563.73C700.4 565.62 706.88 566.27 713.05 565.6C719.64 564.88 728.28 562.78 732.85 557.53C736.31 553.56 735.93 546.64 730.65 544.42C724.73 541.94 718.46 548.47 712.61 549.41C697.75 551.8 687.54 540.33 686.89 526.35C686.18 510.96 698.38 498.81 713.97 502.22C720.39 503.62 729.13 513.57 733.99 503.47C736.39 498.48 733.4 493.49 729.11 490.82C721.69 486.21 712.45 484.92 703.88 485.73ZM542.86 496.62C542.06 493.91 541.59 490.87 539.23 488.99C535.03 485.64 527.62 487.27 525.86 492.59C524.04 498.07 525.19 505.34 525.2 511.06C525.2 523.53 525.24 536 525.21 548.47C525.2 554.62 524.51 563.01 532.57 564.05C541.1 565.16 542.91 558.06 542.9 551.28C542.87 540.74 541.09 520.61 544.61 511.36C546.88 505.42 552.18 501.09 558.73 501.48C561.96 501.68 564.82 503.44 568.11 503.16C573.66 502.7 576.23 496.67 574.72 491.73C573.42 487.49 568.24 486.11 564.37 485.97C554.69 485.61 549.26 490.33 542.86 496.62ZM612.25 502.45C642.03 494.95 647.52 545.92 620.23 549.47C594.2 552.87 588.09 508.53 612.25 502.45Z" fill="#ffffff" fill-rule="evenodd" stroke="#ffffff" stroke-width="0.25" stroke-linejoin="round"/>
<path d="M264.18 451.44C260.62 450.94 257.49 448.22 253.82 447.19C244.76 444.67 237.74 447.42 229.58 450.99C221.89 444.45 216.1 434.43 209.94 426.43C208.01 423.91 205.65 419.16 202.93 417.53C200.14 415.87 195.34 416.76 192.18 416.75C184.66 416.74 169.03 415.21 162.71 417.55C177.77 437.19 192.82 456.83 207.88 476.46C201.71 484.74 195.54 493.01 189.37 501.29C184.89 498.14 174.11 482.05 170 476.67C155.44 457.6 141.2 438.2 126.16 419.51C119.59 411.35 110.72 400.47 120.95 390.76C125.21 386.71 130.55 386.89 136.07 386.89C144.79 386.89 153.52 386.87 162.25 386.86C174.41 386.86 186.56 386.89 198.72 386.88C204.66 386.87 211.45 385.89 216.97 388.55C222.11 391.03 225.39 396.73 228.67 401.14C234.77 409.37 241.12 417.42 247.26 425.62C251.78 431.65 264.32 444.13 264.18 451.44ZM411.79 395.61C411.53 393.41 411.26 391.21 411 389.02C409.76 389.02 408.51 389.02 407.26 389.03C407.24 388.81 407.22 388.59 407.2 388.37C408.78 387.98 410.36 387.59 411.94 387.2C411.89 390 411.84 392.8 411.79 395.61ZM406.15 388.96C404.34 389.6 402.53 390.25 400.72 390.9C400.7 390.69 400.67 390.48 400.65 390.27C402.49 389.83 404.32 389.4 406.15 388.96ZM399.46 390.84C397.7 391.48 395.93 392.13 394.17 392.77C394.01 392.58 393.86 392.39 393.7 392.2C395.62 391.75 397.54 391.3 399.46 390.84ZM392.74 392.74C391.18 394.7 389.66 394.61 387.14 394.56C389.01 393.95 390.87 393.34 392.74 392.74ZM387.14 394.56C385.41 396.58 383.41 396.49 380.72 396.46C382.86 395.83 385 395.19 387.14 394.56ZM380.72 396.46C378.23 399.54 371.82 400.31 367.99 401.18C367.96 400.92 367.93 400.66 367.9 400.4C372.18 399.09 376.45 397.78 380.72 396.46ZM365.78 401.08C366.28 401.27 366.77 401.46 367.27 401.65C365.32 402.12 363.38 402.59 361.44 403.05C361.41 402.83 361.39 402.6 361.36 402.37C362.83 401.94 364.31 401.51 365.78 401.08ZM411.18 402.12C410.86 404.92 410.54 407.73 410.22 410.54C410.01 410.38 409.81 410.22 409.6 410.07C409.76 406.92 409.91 403.77 410.07 400.62C410.44 401.12 410.81 401.62 411.18 402.12ZM360.28 402.98C358.74 404.37 357.31 404.64 354.89 404.92C354.87 404.73 354.85 404.53 354.83 404.33C356.65 403.88 358.46 403.43 360.28 402.98ZM353.79 404.89C351.8 405.49 349.81 406.1 347.83 406.71C349.81 406.1 351.8 405.49 353.79 404.89ZM347.83 406.71C347.69 407.05 347.55 407.39 347.41 407.73C345.39 408.02 343.38 408.31 341.36 408.61C343.52 407.97 345.67 407.34 347.83 406.71ZM341.36 408.61C339.64 409.25 337.91 409.89 336.19 410.54C336.03 410.35 335.88 410.17 335.72 409.98C337.6 409.52 339.48 409.06 341.36 408.61ZM334.76 410.5C334.22 411.29 333.67 412.08 333.13 412.87C334.27 414.3 335.41 415.73 336.55 417.16C334.53 415.42 332.52 413.68 330.5 411.94C331.92 411.46 333.34 410.98 334.76 410.5ZM336.55 417.16C338.92 417.75 340.28 418.79 341.32 420.92C339.73 419.67 338.14 418.41 336.55 417.16ZM408.82 419.79C408.38 424.19 407.95 428.58 407.52 432.98C407.28 432.82 407.04 432.67 406.79 432.51C407.26 427.27 407.73 422.04 408.2 416.8C408.4 417.8 408.61 418.79 408.82 419.79ZM341.32 420.92C343.85 421.62 345.62 423.32 346.84 425.6C345 424.04 343.16 422.48 341.32 420.92ZM346.84 425.6C347.34 425.64 347.85 425.68 348.35 425.72C349.7 427.24 351.04 428.77 352.39 430.3C350.54 428.73 348.69 427.17 346.84 425.6ZM406.95 435.76C406.52 440.13 406.08 444.5 405.65 448.88C405.41 448.72 405.17 448.56 404.92 448.41C405.39 443.23 405.86 438.06 406.33 432.88C406.54 433.84 406.74 434.8 406.95 435.76ZM405.08 451.65C404.62 456.34 404.16 461.02 403.7 465.71C403.95 460.18 404.2 454.65 404.46 449.12C404.67 449.96 404.87 450.81 405.08 451.65ZM376.06 453.77C375.18 454.98 374.3 456.19 373.42 457.4C373.77 455.32 374.24 454.7 376.06 453.77ZM381.4 453.88C384.07 454.42 386.32 456.51 387.33 459.06C385.35 457.33 383.38 455.61 381.4 453.88ZM338.26 454.42C337.87 456.47 337.47 457.12 335.6 457.93C336.49 456.76 337.38 455.59 338.26 454.42ZM767.3 518.16C776.67 510.17 785.18 501 794.13 492.53C797.91 488.94 802.75 484.9 808.03 488.57C812.08 491.38 812.35 496.77 809.62 500.55C804.06 508.3 794.13 513.88 787.91 521.35C795.42 531.25 805.42 539.42 812.61 549.51C815.24 553.2 815.48 558.57 811.99 561.85C808.07 565.54 802.01 564.34 798.47 560.79C791.89 554.18 780.8 537.99 773.84 533.84C771.85 535.32 768.07 537.95 767.07 540.29C763.98 547.5 771.89 565.15 757.01 564.14C755.25 564.02 753.43 563.46 752.01 562.38C746.66 558.29 749 546.84 748.99 540.99C748.98 520.73 748.98 500.47 748.98 480.2C748.98 473.25 746.31 460.65 755.07 458C764.13 455.25 766.57 463.99 766.59 470.85C766.63 481.14 766.64 491.43 766.62 501.71C766.61 507.06 765.88 513.08 767.3 518.16ZM257.25 464.75C251.57 462.65 249 459.11 241.86 461.2C235.92 462.95 232.94 468.51 229.52 473.1C222.61 482.38 210.64 495.32 206 505.45C207 508.76 208.01 512.07 209.01 515.37C210.88 516.06 212.75 516.74 214.62 517.42C213.83 520.04 213.63 518.55 215.68 519.87C216.15 520.18 216.08 521.12 216.62 521.27C217.88 521.63 218.62 519.37 220.64 521.35C219.72 522.18 219.76 522.24 218.3 522.29C218.73 522.79 220.87 525.51 221.82 525.14C222.4 524.91 222.32 523.9 222.67 523.49C223.38 522.66 224.42 522 225.2 521.2C229.23 517.09 232.8 512.5 236.47 508.07C238.39 505.75 240.42 502.34 243.21 501.52C216.4 536.5 189.59 571.47 162.78 606.45C169.87 608.7 184.17 607.2 192.18 607.24C195.33 607.25 200.17 608.14 202.97 606.5C205.11 605.24 214.41 592.07 216.53 589.21C224.6 578.32 233.32 567.92 241.57 557.17C245.54 552.01 249.53 544.95 254.83 541.23C264.47 553.37 267.37 567.37 285.74 569.21C289.22 569.56 292.55 569.15 295.98 568.62C302.02 573.02 313.13 589.88 318.4 596.67C320.15 598.93 323.93 605.45 326.19 606.62C329.66 608.42 346.29 607.22 351.15 607.22C356.02 607.22 361.89 608.1 366.39 606.45C351.24 586.5 336.1 566.55 320.96 546.6C327.29 538.65 333.61 530.7 339.93 522.75C347.95 531.16 354.5 541.43 361.58 550.66C374.57 567.59 387.75 584.38 400.66 601.38C407.26 610.09 419.23 621.97 408.73 632.69C406.88 634.59 404.24 636.26 401.61 636.78C393.28 638.43 378.82 637.09 369.86 637.08C357.08 637.07 344.29 637.08 331.51 637.09C325.11 637.09 317.75 638.17 311.91 634.98C306.23 631.87 302.48 625.19 298.59 620.21C291.33 610.96 283.84 601.79 276.91 592.28C273.36 587.4 269.29 580.16 264.18 577.02C260.5 580.81 257.59 585.4 254.3 589.54C247.13 598.59 239.94 607.67 233 616.91C228.17 623.33 223.18 632.58 215.41 635.78C209.81 638.1 202.79 637.07 196.85 637.07C184.69 637.09 172.54 637.08 160.38 637.08C152.15 637.08 133.98 638.47 126.91 636.6C122.54 635.45 118.76 631.88 117.27 627.66C114.34 619.39 119.41 613.33 124.18 607.18C129.23 600.68 134.13 594.07 139.15 587.55C165.81 552.83 192.87 518.42 219.42 483.63C223.98 477.66 233.64 463 240.16 460.44C245.63 458.28 254.49 458.81 257.25 464.75ZM403.19 467.6C402.99 469.03 402.79 470.47 402.59 471.9C397.79 467.9 393 463.89 388.21 459.88C388.64 459.8 389.08 459.71 389.52 459.63C393.25 462.61 396.98 465.58 400.72 468.56C402.06 467.35 402.02 467.13 403.19 467.6ZM489.56 479.11C488.57 486.44 489.29 494.3 489.31 501.71C489.35 515.74 489.33 529.77 489.32 543.8C489.31 551.51 491.26 563.9 480.2 564.16C468.89 564.42 470.67 551.46 470.67 543.8C470.67 530.39 470.67 516.99 470.69 503.58C470.7 495.52 471.17 487.29 470.46 479.27C462.38 477.75 453.07 480.7 445.17 478.32C440.11 476.8 437.66 470.89 440.48 466.25C443.73 460.91 451.58 462.32 456.83 462.32C472.1 462.33 487.37 462.29 502.65 462.33C508.01 462.35 516.51 460.78 519.69 466.44C522.28 471.07 520.27 476.72 515.16 478.28C507.91 480.5 497.35 478.32 489.56 479.11ZM866.43 498.74C874.87 488.31 881.8 476.66 890.37 466.31C893.89 462.05 899.66 460.27 904.11 464.5C909.69 469.8 905.42 475.7 901.75 480.44C896.58 487.14 891.52 493.91 886.47 500.69C883.53 504.64 879.9 508.51 877.78 512.94C885.53 525.06 895.02 536.57 903.9 547.9C907.17 552.07 909.08 558.48 904.19 562.4C899.85 565.86 893.69 564.58 890.33 560.51C881.8 550.17 875.16 536.28 865.49 527.15C857.28 538.02 849.95 549.74 841.22 560.2C837.86 564.22 832.15 566.17 827.7 562.43C822.14 557.75 825.92 550.97 829.44 546.54C834.83 539.75 839.82 532.63 845.05 525.72C848.13 521.66 852.02 517.64 853.98 512.94C846.71 501.23 837.24 490.73 829.16 479.57C825.69 474.79 822.58 468.73 828.3 464.05C833.79 459.55 839.28 463.06 842.96 467.7C850.63 477.37 857.85 490.24 866.43 498.74ZM331.84 462.85C330.93 464.12 330.01 465.38 329.09 466.65C330.01 465.38 330.93 464.12 331.84 462.85ZM257.25 464.75C259.72 468.61 262.18 472.47 264.65 476.33C264.18 476.22 263.71 476.1 263.25 475.99C261.25 472.24 259.25 468.5 257.25 464.75ZM329.09 466.65C328.5 467.74 327.9 468.83 327.31 469.92C326.94 469.96 326.58 470 326.22 470.05C327.17 468.91 328.13 467.78 329.09 466.65ZM365.77 466.95C364.82 468.09 363.86 469.23 362.91 470.37C363.86 469.23 364.82 468.09 365.77 466.95ZM362.91 470.37C361.87 471.9 360.83 473.42 359.79 474.94C359.57 474.82 359.34 474.71 359.12 474.59C360.38 473.19 361.65 471.78 362.91 470.37ZM359.02 475.66C357.26 477.97 355.5 480.29 353.74 482.6C355.06 480.36 356.38 478.12 357.7 475.87C358.14 475.8 358.58 475.73 359.02 475.66ZM265.39 477.27C266.09 478.4 266.79 479.54 267.49 480.67C267.01 480.53 266.53 480.39 266.05 480.25C265.59 479.3 265.12 478.35 264.65 477.4C264.9 477.35 265.15 477.31 265.39 477.27ZM267.49 480.67C268.72 482.52 269.95 484.36 271.18 486.2C270.72 486.11 270.26 486.02 269.79 485.92C269.03 484.17 268.26 482.42 267.49 480.67ZM315.78 483.35C315.23 486.68 311.52 491.12 308.53 492.77C310.95 489.63 313.36 486.49 315.78 483.35ZM637.31 493.76C639.88 483.58 652.98 483.33 654.43 493.33C655.91 503.53 654.62 514.79 654.64 525.09C654.66 534.57 655.84 547.84 654.55 556.87C653.65 563.17 646.5 566.08 641.16 562.88C638.77 561.45 637.93 558.89 636.38 556.91C633.02 560.43 629.1 562.82 624.44 564.23C599.79 571.68 580.28 550.4 579.96 526.96C579.62 502.94 596.77 481.96 622.34 486.33C628.43 487.37 632.28 490.81 637.31 493.76ZM703.88 485.73C712.45 484.92 721.69 486.21 729.11 490.82C733.4 493.49 736.39 498.48 733.99 503.47C729.13 513.57 720.39 503.62 713.97 502.22C698.38 498.81 686.18 510.96 686.89 526.35C687.54 540.33 697.75 551.8 712.61 549.41C718.46 548.47 724.73 541.94 730.65 544.42C735.93 546.64 736.31 553.56 732.85 557.53C728.28 562.78 719.64 564.88 713.05 565.6C706.88 566.27 700.4 565.62 694.49 563.73C656.47 551.55 662.28 489.64 703.88 485.73ZM542.86 496.62C549.26 490.33 554.69 485.61 564.37 485.97C568.24 486.11 573.42 487.49 574.72 491.73C576.23 496.67 573.66 502.7 568.11 503.16C564.82 503.44 561.96 501.68 558.73 501.48C552.18 501.09 546.88 505.42 544.61 511.36C541.09 520.61 542.87 540.74 542.9 551.28C542.91 558.06 541.1 565.16 532.57 564.05C524.51 563.01 525.2 554.62 525.21 548.47C525.24 536 525.2 523.53 525.2 511.06C525.19 505.34 524.04 498.07 525.86 492.59C527.62 487.27 535.03 485.64 539.23 488.99C541.59 490.87 542.06 493.91 542.86 496.62ZM273.24 489.93C276.61 495.23 279.98 500.52 283.35 505.81C282.85 505.69 282.35 505.57 281.85 505.45C279.21 500.75 273.73 495.23 273.24 489.93ZM308.53 492.77C307.91 494.74 307.49 495.48 305.67 496.27C306.62 495.1 307.58 493.93 308.53 492.77ZM302.29 500.45C302.46 500.56 302.63 500.67 302.8 500.78C301.59 502.18 300.37 503.58 299.16 504.98C300.2 503.47 301.25 501.96 302.29 500.45ZM245.85 501.53C247.67 502.72 248.24 503.74 248.7 505.96C247.75 504.48 246.8 503.01 245.85 501.53ZM612.25 502.45C588.09 508.53 594.2 552.87 620.23 549.47C647.52 545.92 642.03 494.95 612.25 502.45ZM299.16 504.98C298.1 506.73 297.04 508.48 295.98 510.23C295.51 510.36 295.03 510.49 294.56 510.62C296.1 508.74 297.63 506.86 299.16 504.98ZM248.7 505.96C250.93 507.25 251.85 509.14 252.39 511.62C251.16 509.74 249.93 507.85 248.7 505.96ZM334.78 506.74C333.86 507.72 332.94 508.7 332.01 509.68C332.78 508.43 333.55 507.18 334.32 505.93C334.47 506.2 334.63 506.47 334.78 506.74ZM332.01 509.68C331.16 510.96 330.31 512.23 329.46 513.51C329.82 511.5 330.34 510.82 332.01 509.68ZM294.56 510.62C294.57 511.08 294.57 511.54 294.58 512C293.8 513.02 293.02 514.03 292.24 515.05C291.78 515.07 291.31 515.1 290.85 515.12C292.09 513.62 293.33 512.12 294.56 510.62ZM252.39 511.62C253.23 512.68 254.06 513.75 254.89 514.81C256.23 517.15 257.58 519.49 258.92 521.83C256.74 518.43 254.57 515.03 252.39 511.62ZM327.33 516.38C323.3 521.34 319.27 526.31 315.24 531.27C318.76 526.41 322.28 521.54 325.8 516.68C326.31 516.58 326.82 516.48 327.33 516.38ZM258.92 521.83C260.75 523.11 261.25 524.36 261.53 526.63C260.66 525.03 259.79 523.43 258.92 521.83ZM264.55 531.43C269.46 533.68 273.6 545.24 277.32 549.8C279.59 552.56 283.2 553.09 285.21 555.58C282.56 555.26 280.39 554.42 278.32 552.59C274.54 549.24 266.49 536.21 264.55 531.43ZM315.24 531.27C310.88 536.87 306.52 542.48 302.16 548.08C303.14 544.14 311.64 533.25 315.24 531.27ZM301.02 549.6C298.94 552.95 295.74 555.11 291.85 555.59C291.98 555.25 292.11 554.9 292.24 554.55C295.16 552.9 298.09 551.25 301.02 549.6ZM291.85 555.59C289.69 556.49 287.4 556.48 285.21 555.58C285.68 555.39 286.15 555.2 286.63 555.02C288.37 555.21 290.11 555.4 291.85 555.59Z" fill="#114096" fill-rule="evenodd" stroke="#114096" stroke-width="0.25" stroke-linejoin="round"/>
<path d="M407.2 388.37C407.22 388.59 407.24 388.81 407.26 389.03C408.51 389.02 409.76 389.02 411 389.02C411.26 391.21 411.53 393.41 411.79 395.61C411.58 397.78 411.38 399.95 411.18 402.12C410.81 401.62 410.44 401.12 410.07 400.62C409.91 403.77 409.76 406.92 409.6 410.07C409.81 410.22 410.01 410.38 410.22 410.54C409.75 413.62 409.28 416.71 408.82 419.79C408.61 418.79 408.4 417.8 408.2 416.8C407.73 422.04 407.26 427.27 406.79 432.51C407.04 432.67 407.28 432.82 407.52 432.98C407.33 433.91 407.14 434.83 406.95 435.76C406.74 434.8 406.54 433.84 406.33 432.88C405.86 438.06 405.39 443.23 404.92 448.41C405.17 448.56 405.41 448.72 405.65 448.88C405.46 449.8 405.27 450.73 405.08 451.65C404.87 450.81 404.67 449.96 404.46 449.12C404.2 454.65 403.95 460.18 403.7 465.71C403.53 466.34 403.36 466.97 403.19 467.6C402.02 467.13 402.06 467.35 400.72 468.56C396.98 465.58 393.25 462.61 389.52 459.63C389.08 459.71 388.64 459.8 388.21 459.88C387.92 459.61 387.62 459.33 387.33 459.06C386.32 456.51 384.07 454.42 381.4 453.88C380.36 453.28 379.31 452.67 378.27 452.07C377.53 452.64 376.79 453.2 376.06 453.77C374.24 454.7 373.77 455.32 373.42 457.4C370.87 460.58 368.32 463.77 365.77 466.95C364.82 468.09 363.86 469.23 362.91 470.37C361.65 471.78 360.38 473.19 359.12 474.59C359.34 474.71 359.57 474.82 359.79 474.94C359.53 475.18 359.28 475.42 359.02 475.66C358.58 475.73 358.14 475.8 357.7 475.87C356.38 478.12 355.06 480.36 353.74 482.6C347.42 490.65 341.1 498.69 334.78 506.74C334.63 506.47 334.47 506.2 334.32 505.93C333.55 507.18 332.78 508.43 332.01 509.68C330.34 510.82 329.82 511.5 329.46 513.51C328.75 514.46 328.04 515.42 327.33 516.38C326.82 516.48 326.31 516.58 325.8 516.68C322.28 521.54 318.76 526.41 315.24 531.27C311.64 533.25 303.14 544.14 302.16 548.08C301.78 548.58 301.4 549.09 301.02 549.6C298.09 551.25 295.16 552.9 292.24 554.55C292.11 554.9 291.98 555.25 291.85 555.59C290.11 555.4 288.37 555.21 286.63 555.02C286.15 555.2 285.68 555.39 285.21 555.58C283.2 553.09 279.59 552.56 277.32 549.8C273.6 545.24 269.46 533.68 264.55 531.43C263.54 529.83 262.54 528.23 261.53 526.63C261.25 524.36 260.75 523.11 258.92 521.83C257.58 519.49 256.23 517.15 254.89 514.81C254.06 513.75 253.23 512.68 252.39 511.62C251.85 509.14 250.93 507.25 248.7 505.96C248.24 503.74 247.67 502.72 245.85 501.53C245.42 501.24 244.98 500.96 244.54 500.67C244.1 500.95 243.65 501.24 243.21 501.52C240.42 502.34 238.39 505.75 236.47 508.07C232.8 512.5 229.23 517.09 225.2 521.2C224.42 522 223.38 522.66 222.67 523.49C222.32 523.9 222.4 524.91 221.82 525.14C220.87 525.51 218.73 522.79 218.3 522.29C219.76 522.24 219.72 522.18 220.64 521.35C218.62 519.37 217.88 521.63 216.62 521.27C216.08 521.12 216.15 520.18 215.68 519.87C213.63 518.55 213.83 520.04 214.62 517.42C212.75 516.74 210.88 516.06 209.01 515.37C208.01 512.07 207 508.76 206 505.45C210.64 495.32 222.61 482.38 229.52 473.1C232.94 468.51 235.92 462.95 241.86 461.2C249 459.11 251.57 462.65 257.25 464.75C259.25 468.5 261.25 472.24 263.25 475.99C263.71 476.1 264.18 476.22 264.65 476.33C264.9 476.64 265.14 476.95 265.39 477.27C265.15 477.31 264.9 477.35 264.65 477.4C265.12 478.35 265.59 479.3 266.05 480.25C266.53 480.39 267.01 480.53 267.49 480.67C268.26 482.42 269.03 484.17 269.79 485.92C270.26 486.02 270.72 486.11 271.18 486.2C271.87 487.44 272.55 488.69 273.24 489.93C273.73 495.23 279.21 500.75 281.85 505.45C282.35 505.57 282.85 505.69 283.35 505.81C285.38 508.97 287.41 512.12 289.43 515.28C289.91 515.23 290.38 515.17 290.85 515.12C291.31 515.1 291.78 515.07 292.24 515.05C293.02 514.03 293.8 513.02 294.58 512C294.57 511.54 294.57 511.08 294.56 510.62C295.03 510.49 295.51 510.36 295.98 510.23C297.04 508.48 298.1 506.73 299.16 504.98C300.37 503.58 301.59 502.18 302.8 500.78C302.63 500.67 302.46 500.56 302.29 500.45C303.42 499.06 304.54 497.66 305.67 496.27C307.49 495.48 307.91 494.74 308.53 492.77C311.52 491.12 315.23 486.68 315.78 483.35C319.26 478.92 322.74 474.48 326.22 470.05C326.58 470 326.94 469.96 327.31 469.92C327.9 468.83 328.5 467.74 329.09 466.65C330.01 465.38 330.93 464.12 331.84 462.85C333.1 461.21 334.35 459.57 335.6 457.93C337.47 457.12 337.87 456.47 338.26 454.42C343.64 447.43 349.03 440.44 354.41 433.45C353.73 432.4 353.06 431.35 352.39 430.3C351.04 428.77 349.7 427.24 348.35 425.72C347.85 425.68 347.34 425.64 346.84 425.6C345.62 423.32 343.85 421.62 341.32 420.92C340.28 418.79 338.92 417.75 336.55 417.16C335.41 415.73 334.27 414.3 333.13 412.87C333.67 412.08 334.22 411.29 334.76 410.5C335.08 410.33 335.4 410.16 335.72 409.98C335.88 410.17 336.03 410.35 336.19 410.54C337.91 409.89 339.64 409.25 341.36 408.61C343.38 408.31 345.39 408.02 347.41 407.73C347.55 407.39 347.69 407.05 347.83 406.71C349.81 406.1 351.8 405.49 353.79 404.89C354.14 404.7 354.48 404.51 354.83 404.33C354.85 404.53 354.87 404.73 354.89 404.92C357.31 404.64 358.74 404.37 360.28 402.98C360.64 402.78 361 402.58 361.36 402.37C361.39 402.6 361.41 402.83 361.44 403.05C363.38 402.59 365.32 402.12 367.27 401.65C366.77 401.46 366.28 401.27 365.78 401.08C366.49 400.85 367.2 400.63 367.9 400.4C367.93 400.66 367.96 400.92 367.99 401.18C371.82 400.31 378.23 399.54 380.72 396.46C383.41 396.49 385.41 396.58 387.14 394.56C389.66 394.61 391.18 394.7 392.74 392.74C393.06 392.56 393.38 392.38 393.7 392.2C393.86 392.39 394.01 392.58 394.17 392.77C395.93 392.13 397.7 391.48 399.46 390.84C399.86 390.65 400.26 390.46 400.65 390.27C400.67 390.48 400.7 390.69 400.72 390.9C402.53 390.25 404.34 389.6 406.15 388.96C406.5 388.76 406.85 388.57 407.2 388.37Z" fill="#0b51c7" fill-rule="evenodd" stroke="#0b51c7" stroke-width="0.25" stroke-linejoin="round"/>
</svg>